<mxfile host="Electron" modified="2024-07-30T19:46:20.233Z" agent="Mozilla/5.0 (Windows NT 10.0; Win64; x64) AppleWebKit/537.36 (KHTML, like Gecko) draw.io/22.1.16 Chrome/120.0.6099.109 Electron/28.1.0 Safari/537.36" etag="VF1jf2SKjvUXUITPaFPi" version="22.1.16" type="device">
  <diagram name="Page-1" id="oC_vKdF35f0Wkd4ZTCb7">
    <mxGraphModel dx="2026" dy="2143" grid="1" gridSize="10" guides="1" tooltips="1" connect="1" arrows="1" fold="1" page="1" pageScale="1" pageWidth="800" pageHeight="800" math="0" shadow="0">
      <root>
        <mxCell id="0" />
        <mxCell id="1" parent="0" />
        <mxCell id="ydAQ1urp5yznKoa1_box-87" value="function-statement" style="rounded=0;whiteSpace=wrap;html=1;verticalAlign=top;spacing=-3;" parent="1" vertex="1">
          <mxGeometry x="34" y="-790" width="732.5" height="760" as="geometry" />
        </mxCell>
        <mxCell id="ydAQ1urp5yznKoa1_box-84" value="block-statement" style="rounded=0;whiteSpace=wrap;html=1;verticalAlign=top;spacing=-3;" parent="1" vertex="1">
          <mxGeometry x="49" y="-680" width="697.5" height="610" as="geometry" />
        </mxCell>
        <mxCell id="ydAQ1urp5yznKoa1_box-83" value="function-declaration" style="rounded=0;whiteSpace=wrap;html=1;verticalAlign=top;spacing=-3;" parent="1" vertex="1">
          <mxGeometry x="49" y="-770" width="265" height="80" as="geometry" />
        </mxCell>
        <mxCell id="ydAQ1urp5yznKoa1_box-74" value="statement" style="rounded=0;whiteSpace=wrap;html=1;verticalAlign=top;spacing=-3;" parent="1" vertex="1">
          <mxGeometry x="66.5" y="-160" width="140" height="80" as="geometry" />
        </mxCell>
        <mxCell id="ydAQ1urp5yznKoa1_box-69" value="declaration-statement" style="rounded=0;whiteSpace=wrap;html=1;verticalAlign=top;spacing=-3;" parent="1" vertex="1">
          <mxGeometry x="66.5" y="-640" width="660" height="110" as="geometry" />
        </mxCell>
        <mxCell id="ydAQ1urp5yznKoa1_box-19" value="iteration-statement" style="rounded=0;whiteSpace=wrap;html=1;verticalAlign=top;spacing=-3;" parent="1" vertex="1">
          <mxGeometry x="66.5" y="-520" width="660" height="350" as="geometry" />
        </mxCell>
        <mxCell id="ydAQ1urp5yznKoa1_box-47" value="block-statement" style="rounded=0;whiteSpace=wrap;html=1;verticalAlign=top;spacing=-3;" parent="1" vertex="1">
          <mxGeometry x="144" y="-410" width="477.5" height="230" as="geometry" />
        </mxCell>
        <mxCell id="ydAQ1urp5yznKoa1_box-67" value="statement" style="rounded=0;whiteSpace=wrap;html=1;verticalAlign=top;spacing=-3;" parent="1" vertex="1">
          <mxGeometry x="171.5" y="-390" width="420" height="190" as="geometry" />
        </mxCell>
        <mxCell id="ydAQ1urp5yznKoa1_box-54" value="parameters-list" style="rounded=0;whiteSpace=wrap;html=1;verticalAlign=top;spacing=-3;" parent="1" vertex="1">
          <mxGeometry x="301.5" y="-360" width="240" height="150" as="geometry" />
        </mxCell>
        <mxCell id="ydAQ1urp5yznKoa1_box-66" value="parameter" style="rounded=0;whiteSpace=wrap;html=1;verticalAlign=top;spacing=-3;" parent="1" vertex="1">
          <mxGeometry x="456.5" y="-340" width="67.5" height="120" as="geometry" />
        </mxCell>
        <mxCell id="ydAQ1urp5yznKoa1_box-55" value="parameter" style="rounded=0;whiteSpace=wrap;html=1;verticalAlign=top;spacing=-3;" parent="1" vertex="1">
          <mxGeometry x="314" y="-340" width="120" height="120" as="geometry" />
        </mxCell>
        <mxCell id="ydAQ1urp5yznKoa1_box-58" value="string-litteral" style="rounded=0;whiteSpace=wrap;html=1;verticalAlign=top;spacing=-3;" parent="1" vertex="1">
          <mxGeometry x="324" y="-312" width="100" height="82" as="geometry" />
        </mxCell>
        <mxCell id="ydAQ1urp5yznKoa1_box-62" value="string" style="rounded=0;whiteSpace=wrap;html=1;verticalAlign=top;spacing=-3;" parent="1" vertex="1">
          <mxGeometry x="354" y="-290" width="40" height="50" as="geometry" />
        </mxCell>
        <mxCell id="ydAQ1urp5yznKoa1_box-18" value="expression" style="rounded=0;whiteSpace=wrap;html=1;verticalAlign=top;spacing=-3;" parent="1" vertex="1">
          <mxGeometry x="191.5" y="-620" width="375" height="80" as="geometry" />
        </mxCell>
        <mxCell id="ydAQ1urp5yznKoa1_box-10" value="number" style="rounded=0;whiteSpace=wrap;html=1;verticalAlign=top;spacing=-3;" parent="1" vertex="1">
          <mxGeometry x="356.5" y="-600" width="50" height="50" as="geometry" />
        </mxCell>
        <mxCell id="ydAQ1urp5yznKoa1_box-5" value="identifier" style="rounded=0;whiteSpace=wrap;html=1;verticalAlign=top;spacing=-3;" parent="1" vertex="1">
          <mxGeometry x="196.5" y="-600" width="80" height="50" as="geometry" />
        </mxCell>
        <mxCell id="ydAQ1urp5yznKoa1_box-3" value="type" style="rounded=0;whiteSpace=wrap;html=1;verticalAlign=top;spacing=-3;" parent="1" vertex="1">
          <mxGeometry x="76.5" y="-600" width="110" height="50" as="geometry" />
        </mxCell>
        <mxCell id="ydAQ1urp5yznKoa1_box-1" value="const" style="rounded=0;whiteSpace=wrap;html=1;fillColor=#d5e8d4;strokeColor=#82b366;" parent="1" vertex="1">
          <mxGeometry x="86.5" y="-580" width="40" height="20" as="geometry" />
        </mxCell>
        <mxCell id="ydAQ1urp5yznKoa1_box-2" value="int" style="rounded=0;whiteSpace=wrap;html=1;fillColor=#d5e8d4;strokeColor=#82b366;" parent="1" vertex="1">
          <mxGeometry x="136.5" y="-580" width="40" height="20" as="geometry" />
        </mxCell>
        <mxCell id="ydAQ1urp5yznKoa1_box-4" value="n" style="rounded=0;whiteSpace=wrap;html=1;fillColor=#dae8fc;strokeColor=#6c8ebf;" parent="1" vertex="1">
          <mxGeometry x="206.5" y="-580" width="60" height="20" as="geometry" />
        </mxCell>
        <mxCell id="ydAQ1urp5yznKoa1_box-7" value="23" style="rounded=0;whiteSpace=wrap;html=1;fillColor=#fff2cc;strokeColor=#d6b656;" parent="1" vertex="1">
          <mxGeometry x="366.5" y="-580" width="30" height="20" as="geometry" />
        </mxCell>
        <mxCell id="ydAQ1urp5yznKoa1_box-11" value="operator" style="rounded=0;whiteSpace=wrap;html=1;verticalAlign=top;spacing=-3;" parent="1" vertex="1">
          <mxGeometry x="286.5" y="-600" width="60" height="50" as="geometry" />
        </mxCell>
        <mxCell id="ydAQ1urp5yznKoa1_box-12" value="=" style="rounded=0;whiteSpace=wrap;html=1;fillColor=#e1d5e7;strokeColor=#9673a6;" parent="1" vertex="1">
          <mxGeometry x="296.5" y="-580" width="40" height="20" as="geometry" />
        </mxCell>
        <mxCell id="ydAQ1urp5yznKoa1_box-13" value="number" style="rounded=0;whiteSpace=wrap;html=1;verticalAlign=top;spacing=-3;" parent="1" vertex="1">
          <mxGeometry x="486.5" y="-600" width="50" height="50" as="geometry" />
        </mxCell>
        <mxCell id="ydAQ1urp5yznKoa1_box-14" value="42" style="rounded=0;whiteSpace=wrap;html=1;fillColor=#fff2cc;strokeColor=#d6b656;" parent="1" vertex="1">
          <mxGeometry x="496.5" y="-580" width="30" height="20" as="geometry" />
        </mxCell>
        <mxCell id="ydAQ1urp5yznKoa1_box-15" value="operator" style="rounded=0;whiteSpace=wrap;html=1;verticalAlign=top;spacing=-3;" parent="1" vertex="1">
          <mxGeometry x="416.5" y="-600" width="60" height="50" as="geometry" />
        </mxCell>
        <mxCell id="ydAQ1urp5yznKoa1_box-16" value="+" style="rounded=0;whiteSpace=wrap;html=1;fillColor=#e1d5e7;strokeColor=#9673a6;" parent="1" vertex="1">
          <mxGeometry x="426.5" y="-580" width="40" height="20" as="geometry" />
        </mxCell>
        <mxCell id="ydAQ1urp5yznKoa1_box-17" value=";" style="rounded=0;whiteSpace=wrap;html=1;" parent="1" vertex="1">
          <mxGeometry x="546.5" y="-580" width="10" height="20" as="geometry" />
        </mxCell>
        <mxCell id="ydAQ1urp5yznKoa1_box-20" value="for" style="rounded=0;whiteSpace=wrap;html=1;fillColor=#d5e8d4;strokeColor=#82b366;" parent="1" vertex="1">
          <mxGeometry x="76.5" y="-460" width="40" height="20" as="geometry" />
        </mxCell>
        <mxCell id="ydAQ1urp5yznKoa1_box-21" value="(" style="rounded=0;whiteSpace=wrap;html=1;" parent="1" vertex="1">
          <mxGeometry x="126.5" y="-460" width="10" height="20" as="geometry" />
        </mxCell>
        <mxCell id="ydAQ1urp5yznKoa1_box-22" value="expression" style="rounded=0;whiteSpace=wrap;html=1;verticalAlign=top;spacing=-3;" parent="1" vertex="1">
          <mxGeometry x="144" y="-500" width="180" height="80" as="geometry" />
        </mxCell>
        <mxCell id="ydAQ1urp5yznKoa1_box-23" value=";" style="rounded=0;whiteSpace=wrap;html=1;" parent="1" vertex="1">
          <mxGeometry x="336.5" y="-460" width="10" height="20" as="geometry" />
        </mxCell>
        <mxCell id="ydAQ1urp5yznKoa1_box-24" value="number" style="rounded=0;whiteSpace=wrap;html=1;verticalAlign=top;spacing=-3;" parent="1" vertex="1">
          <mxGeometry x="269" y="-480" width="50" height="50" as="geometry" />
        </mxCell>
        <mxCell id="ydAQ1urp5yznKoa1_box-25" value="identifier" style="rounded=0;whiteSpace=wrap;html=1;verticalAlign=top;spacing=-3;" parent="1" vertex="1">
          <mxGeometry x="149" y="-480" width="55" height="50" as="geometry" />
        </mxCell>
        <mxCell id="ydAQ1urp5yznKoa1_box-26" value="i" style="rounded=0;whiteSpace=wrap;html=1;fillColor=#dae8fc;strokeColor=#6c8ebf;" parent="1" vertex="1">
          <mxGeometry x="159" y="-460" width="35" height="20" as="geometry" />
        </mxCell>
        <mxCell id="ydAQ1urp5yznKoa1_box-27" value="0" style="rounded=0;whiteSpace=wrap;html=1;fillColor=#fff2cc;strokeColor=#d6b656;" parent="1" vertex="1">
          <mxGeometry x="279" y="-460" width="30" height="20" as="geometry" />
        </mxCell>
        <mxCell id="ydAQ1urp5yznKoa1_box-28" value="operator" style="rounded=0;whiteSpace=wrap;html=1;verticalAlign=top;spacing=-3;" parent="1" vertex="1">
          <mxGeometry x="209" y="-480" width="55" height="50" as="geometry" />
        </mxCell>
        <mxCell id="ydAQ1urp5yznKoa1_box-29" value="=" style="rounded=0;whiteSpace=wrap;html=1;fillColor=#e1d5e7;strokeColor=#9673a6;" parent="1" vertex="1">
          <mxGeometry x="219" y="-460" width="35" height="20" as="geometry" />
        </mxCell>
        <mxCell id="ydAQ1urp5yznKoa1_box-30" value="expression" style="rounded=0;whiteSpace=wrap;html=1;verticalAlign=top;spacing=-3;" parent="1" vertex="1">
          <mxGeometry x="356.5" y="-500" width="180" height="80" as="geometry" />
        </mxCell>
        <mxCell id="ydAQ1urp5yznKoa1_box-31" value="number" style="rounded=0;whiteSpace=wrap;html=1;verticalAlign=top;spacing=-3;" parent="1" vertex="1">
          <mxGeometry x="481.5" y="-480" width="50" height="50" as="geometry" />
        </mxCell>
        <mxCell id="ydAQ1urp5yznKoa1_box-32" value="identifier" style="rounded=0;whiteSpace=wrap;html=1;verticalAlign=top;spacing=-3;" parent="1" vertex="1">
          <mxGeometry x="361.5" y="-480" width="55" height="50" as="geometry" />
        </mxCell>
        <mxCell id="ydAQ1urp5yznKoa1_box-33" value="i" style="rounded=0;whiteSpace=wrap;html=1;fillColor=#dae8fc;strokeColor=#6c8ebf;" parent="1" vertex="1">
          <mxGeometry x="371.5" y="-460" width="35" height="20" as="geometry" />
        </mxCell>
        <mxCell id="ydAQ1urp5yznKoa1_box-34" value="n" style="rounded=0;whiteSpace=wrap;html=1;fillColor=#fff2cc;strokeColor=#d6b656;" parent="1" vertex="1">
          <mxGeometry x="491.5" y="-460" width="30" height="20" as="geometry" />
        </mxCell>
        <mxCell id="ydAQ1urp5yznKoa1_box-35" value="operator" style="rounded=0;whiteSpace=wrap;html=1;verticalAlign=top;spacing=-3;" parent="1" vertex="1">
          <mxGeometry x="421.5" y="-480" width="55" height="50" as="geometry" />
        </mxCell>
        <mxCell id="ydAQ1urp5yznKoa1_box-36" value="&amp;lt;" style="rounded=0;whiteSpace=wrap;html=1;fillColor=#e1d5e7;strokeColor=#9673a6;" parent="1" vertex="1">
          <mxGeometry x="431.5" y="-460" width="35" height="20" as="geometry" />
        </mxCell>
        <mxCell id="ydAQ1urp5yznKoa1_box-37" value=";" style="rounded=0;whiteSpace=wrap;html=1;" parent="1" vertex="1">
          <mxGeometry x="546.5" y="-460" width="10" height="20" as="geometry" />
        </mxCell>
        <mxCell id="ydAQ1urp5yznKoa1_box-39" value="expression" style="rounded=0;whiteSpace=wrap;html=1;verticalAlign=top;spacing=-3;" parent="1" vertex="1">
          <mxGeometry x="566.5" y="-500" width="130" height="80" as="geometry" />
        </mxCell>
        <mxCell id="ydAQ1urp5yznKoa1_box-41" value="identifier" style="rounded=0;whiteSpace=wrap;html=1;verticalAlign=top;spacing=-3;" parent="1" vertex="1">
          <mxGeometry x="571.5" y="-480" width="55" height="50" as="geometry" />
        </mxCell>
        <mxCell id="ydAQ1urp5yznKoa1_box-42" value="i" style="rounded=0;whiteSpace=wrap;html=1;fillColor=#dae8fc;strokeColor=#6c8ebf;" parent="1" vertex="1">
          <mxGeometry x="581.5" y="-460" width="35" height="20" as="geometry" />
        </mxCell>
        <mxCell id="ydAQ1urp5yznKoa1_box-44" value="operator" style="rounded=0;whiteSpace=wrap;html=1;verticalAlign=top;spacing=-3;" parent="1" vertex="1">
          <mxGeometry x="631.5" y="-480" width="55" height="50" as="geometry" />
        </mxCell>
        <mxCell id="ydAQ1urp5yznKoa1_box-45" value="++" style="rounded=0;whiteSpace=wrap;html=1;fillColor=#e1d5e7;strokeColor=#9673a6;" parent="1" vertex="1">
          <mxGeometry x="641.5" y="-460" width="35" height="20" as="geometry" />
        </mxCell>
        <mxCell id="ydAQ1urp5yznKoa1_box-46" value=")" style="rounded=0;whiteSpace=wrap;html=1;" parent="1" vertex="1">
          <mxGeometry x="706.5" y="-460" width="10" height="20" as="geometry" />
        </mxCell>
        <mxCell id="ydAQ1urp5yznKoa1_box-48" value="{" style="rounded=0;whiteSpace=wrap;html=1;" parent="1" vertex="1">
          <mxGeometry x="154" y="-270" width="10" height="20" as="geometry" />
        </mxCell>
        <mxCell id="ydAQ1urp5yznKoa1_box-49" value="identifier" style="rounded=0;whiteSpace=wrap;html=1;verticalAlign=top;spacing=-3;" parent="1" vertex="1">
          <mxGeometry x="186.5" y="-290" width="80" height="50" as="geometry" />
        </mxCell>
        <mxCell id="ydAQ1urp5yznKoa1_box-50" value="printf" style="rounded=0;whiteSpace=wrap;html=1;fillColor=#dae8fc;strokeColor=#6c8ebf;" parent="1" vertex="1">
          <mxGeometry x="196.5" y="-270" width="60" height="20" as="geometry" />
        </mxCell>
        <mxCell id="ydAQ1urp5yznKoa1_box-51" value="(" style="rounded=0;whiteSpace=wrap;html=1;" parent="1" vertex="1">
          <mxGeometry x="279" y="-270" width="10" height="20" as="geometry" />
        </mxCell>
        <mxCell id="ydAQ1urp5yznKoa1_box-52" value=")" style="rounded=0;whiteSpace=wrap;html=1;" parent="1" vertex="1">
          <mxGeometry x="551.5" y="-275" width="10" height="20" as="geometry" />
        </mxCell>
        <mxCell id="ydAQ1urp5yznKoa1_box-53" value=";" style="rounded=0;whiteSpace=wrap;html=1;" parent="1" vertex="1">
          <mxGeometry x="571.5" y="-275" width="10" height="20" as="geometry" />
        </mxCell>
        <mxCell id="ydAQ1urp5yznKoa1_box-59" value="%d" style="rounded=0;whiteSpace=wrap;html=1;fillColor=#fff2cc;strokeColor=#d6b656;" parent="1" vertex="1">
          <mxGeometry x="359" y="-270" width="30" height="20" as="geometry" />
        </mxCell>
        <mxCell id="ydAQ1urp5yznKoa1_box-60" value="&quot;" style="rounded=0;whiteSpace=wrap;html=1;" parent="1" vertex="1">
          <mxGeometry x="336.5" y="-270" width="10" height="20" as="geometry" />
        </mxCell>
        <mxCell id="ydAQ1urp5yznKoa1_box-61" value="&quot;" style="rounded=0;whiteSpace=wrap;html=1;" parent="1" vertex="1">
          <mxGeometry x="401.5" y="-270" width="10" height="20" as="geometry" />
        </mxCell>
        <mxCell id="ydAQ1urp5yznKoa1_box-63" value="," style="rounded=0;whiteSpace=wrap;html=1;" parent="1" vertex="1">
          <mxGeometry x="441.5" y="-270" width="10" height="20" as="geometry" />
        </mxCell>
        <mxCell id="ydAQ1urp5yznKoa1_box-64" value="identifier" style="rounded=0;whiteSpace=wrap;html=1;verticalAlign=top;spacing=-3;" parent="1" vertex="1">
          <mxGeometry x="464" y="-290" width="50" height="50" as="geometry" />
        </mxCell>
        <mxCell id="ydAQ1urp5yznKoa1_box-65" value="j" style="rounded=0;whiteSpace=wrap;html=1;fillColor=#dae8fc;strokeColor=#6c8ebf;" parent="1" vertex="1">
          <mxGeometry x="474" y="-270" width="30" height="20" as="geometry" />
        </mxCell>
        <mxCell id="ydAQ1urp5yznKoa1_box-68" value="}" style="rounded=0;whiteSpace=wrap;html=1;" parent="1" vertex="1">
          <mxGeometry x="599" y="-275" width="10" height="20" as="geometry" />
        </mxCell>
        <mxCell id="ydAQ1urp5yznKoa1_box-70" value="return" style="rounded=0;whiteSpace=wrap;html=1;fillColor=#d5e8d4;strokeColor=#82b366;" parent="1" vertex="1">
          <mxGeometry x="76.5" y="-120" width="40" height="20" as="geometry" />
        </mxCell>
        <mxCell id="ydAQ1urp5yznKoa1_box-71" value="number" style="rounded=0;whiteSpace=wrap;html=1;verticalAlign=top;spacing=-3;" parent="1" vertex="1">
          <mxGeometry x="126.5" y="-140" width="50" height="50" as="geometry" />
        </mxCell>
        <mxCell id="ydAQ1urp5yznKoa1_box-72" value="0" style="rounded=0;whiteSpace=wrap;html=1;fillColor=#fff2cc;strokeColor=#d6b656;" parent="1" vertex="1">
          <mxGeometry x="136.5" y="-120" width="30" height="20" as="geometry" />
        </mxCell>
        <mxCell id="ydAQ1urp5yznKoa1_box-73" value=";" style="rounded=0;whiteSpace=wrap;html=1;" parent="1" vertex="1">
          <mxGeometry x="184" y="-120" width="10" height="20" as="geometry" />
        </mxCell>
        <mxCell id="ydAQ1urp5yznKoa1_box-76" value="type" style="rounded=0;whiteSpace=wrap;html=1;verticalAlign=top;spacing=-3;" parent="1" vertex="1">
          <mxGeometry x="56.5" y="-750" width="60" height="50" as="geometry" />
        </mxCell>
        <mxCell id="ydAQ1urp5yznKoa1_box-77" value="int" style="rounded=0;whiteSpace=wrap;html=1;fillColor=#d5e8d4;strokeColor=#82b366;" parent="1" vertex="1">
          <mxGeometry x="66.5" y="-730" width="40" height="20" as="geometry" />
        </mxCell>
        <mxCell id="ydAQ1urp5yznKoa1_box-78" value="identifier" style="rounded=0;whiteSpace=wrap;html=1;verticalAlign=top;spacing=-3;" parent="1" vertex="1">
          <mxGeometry x="126.5" y="-750" width="55" height="50" as="geometry" />
        </mxCell>
        <mxCell id="ydAQ1urp5yznKoa1_box-79" value="main" style="rounded=0;whiteSpace=wrap;html=1;fillColor=#dae8fc;strokeColor=#6c8ebf;" parent="1" vertex="1">
          <mxGeometry x="136.5" y="-730" width="35" height="20" as="geometry" />
        </mxCell>
        <mxCell id="ydAQ1urp5yznKoa1_box-80" value="parameters-list" style="rounded=0;whiteSpace=wrap;html=1;verticalAlign=top;spacing=-3;" parent="1" vertex="1">
          <mxGeometry x="204" y="-750" width="85" height="50" as="geometry" />
        </mxCell>
        <mxCell id="ydAQ1urp5yznKoa1_box-81" value="(" style="rounded=0;whiteSpace=wrap;html=1;" parent="1" vertex="1">
          <mxGeometry x="186.5" y="-730" width="10" height="20" as="geometry" />
        </mxCell>
        <mxCell id="ydAQ1urp5yznKoa1_box-82" value=")" style="rounded=0;whiteSpace=wrap;html=1;" parent="1" vertex="1">
          <mxGeometry x="296.5" y="-730" width="10" height="20" as="geometry" />
        </mxCell>
        <mxCell id="ydAQ1urp5yznKoa1_box-85" value="{" style="rounded=0;whiteSpace=wrap;html=1;" parent="1" vertex="1">
          <mxGeometry x="319" y="-730" width="10" height="20" as="geometry" />
        </mxCell>
        <mxCell id="ydAQ1urp5yznKoa1_box-86" value="}" style="rounded=0;whiteSpace=wrap;html=1;" parent="1" vertex="1">
          <mxGeometry x="49" y="-60" width="10" height="20" as="geometry" />
        </mxCell>
      </root>
    </mxGraphModel>
  </diagram>
</mxfile>
